<svg width="997" height="944" viewBox="0 0 997 944" fill="none" xmlns="http://www.w3.org/2000/svg">
<path fill-rule="evenodd" clip-rule="evenodd" d="M14.5218 829.917L19.5535 838.513V844.173L22.4887 849.205L27.1011 850.882L30.4556 849.624L37.3742 847.947L41.148 848.995L43.6639 847.318L45.1315 845.431L47.6473 844.383L52.2597 845.851L54.3563 844.593L62.5329 837.884L67.1453 839.351L70.0805 840.819L77.4184 836.626L81.1922 838.722L86.8529 836.835L89.5784 837.674L94.1908 835.578L94.6102 834.529L99.2226 831.804L100.061 828.03L105.303 829.497L107.818 828.868L108.447 826.143L112.431 823.208L114.318 816.918L115.576 814.822L115.995 806.855L118.092 805.387L118.511 803.291L119.14 799.097L117.672 794.485L116.414 793.017L114.527 790.921L111.383 785.47V784.002L115.576 779.809L119.978 778.132L122.914 776.664L124.801 774.987L124.172 771.004L125.01 768.278L132.138 765.972L155.83 766.391L161.7 772.471L182.036 783.164L187.068 795.743L186.384 797.762L190.238 796.576L194.241 794.945L195.575 793.463L198.244 792.277L201.357 792.425L203.729 793.907L212.327 792.87L217.516 798.503L223.594 802.506L225.966 806.212L230.858 805.619L241.977 804.581L247.314 806.36L248.352 807.546L251.613 814.81L255.912 815.552L263.177 823.705L272.22 833.342L278.743 844.164L280.225 848.611L278.002 854.245L278.298 855.431L283.635 856.913L284.525 858.396L285.71 862.25L288.082 865.512L287.341 868.477L289.417 873.517L291.196 874.555L292.233 877.668L290.751 879.892L290.454 882.412L290.306 885.377L288.231 887.897L287.638 889.528L284.228 892.196L283.042 895.31L283.487 897.237L285.562 900.943L292.085 901.981L293.864 904.649L291.937 907.614L292.382 909.69L296.384 915.175L297.126 923.18L301.573 922.143L305.576 924.959L312.692 929.852L314.026 932.668L315.36 939.784L320.252 940.229L324.107 940.822L326.479 938.153L335.077 936.819L336.115 931.186L334.336 930.889L333.15 927.924L334.633 925.849L334.484 919.474L339.228 918.436L339.673 914.878L345.01 912.062L345.455 902.426L347.53 899.609L348.865 896.496L354.943 893.975L359.538 894.568L363.986 893.827L368.285 895.458L369.916 895.161L371.991 893.382H374.363L375.401 895.013L376.735 894.568L380.738 897.83L384.444 899.461L388.15 897.978H389.781L393.784 889.38L395.859 888.045L395.711 885.08L394.08 883.45L394.525 881.078L393.636 879.002L398.083 874.406L412.167 869.514L412.315 865.512L411.425 862.843L413.204 861.805L413.946 856.32L416.169 854.541L418.245 853.355V850.687L415.873 849.649V847.87L417.207 845.794L411.722 836.158L405.644 835.417L404.606 834.528L405.051 830.673L407.719 827.115L408.461 819.703L404.903 819.999L401.048 818.665L393.043 819.258L391.115 817.182L394.229 816.738L398.676 815.404L398.38 814.366L393.487 811.401L392.301 810.66L385.334 808.881L378.959 808.436L368.137 809.918L361.021 810.808L348.716 811.253L352.422 809.029L354.646 807.843L353.46 804.433L353.015 800.43L356.425 805.026L361.169 804.581L367.247 804.137L369.175 801.172L372.436 799.837L371.547 802.061L373.326 802.654L376.142 805.026L379.848 804.581L385.037 801.765L388.002 801.023L392.894 802.951L396.749 802.654L397.935 801.468L400.307 798.355L404.458 795.983L405.792 795.39L405.199 793.166L401.938 792.128L400.159 787.384L401.196 784.716L400.455 778.638L405.495 775.673L408.905 773.597L414.39 771.374L413.649 769.298L412.463 767.964V766.333L415.28 763.516L416.911 761.589L425.064 759.069L427.14 759.217L430.105 762.182L431.439 761.737L432.032 759.514L429.808 753.435L427.288 752.25L421.358 753.287L419.134 755.066L416.762 751.508L413.649 748.395L412.463 745.727L410.24 744.985L401.048 740.538L399.566 738.611L403.272 738.759L406.237 738.611L412.315 741.131L419.579 743.948L422.099 744.985L425.806 743.355L430.846 739.204L433.07 735.497L432.032 731.939L429.66 730.605L426.695 729.419L425.509 725.416L425.657 716.522L421.951 713.112L416.318 707.923L413.649 701.845L412.167 700.511L408.905 700.066L406.682 698.583L403.42 697.101V696.063L409.35 696.953L411.129 696.804L413.501 698.139L416.021 698.287L418.986 700.362L420.913 696.804L422.099 700.362V703.624L425.954 707.478L425.657 712.222L428.326 708.813L430.846 704.217L434.701 703.92L435.738 703.031L438.11 702.141L440.186 698.583L439.593 696.36L439.148 694.877L442.706 695.322L443.744 698.435H444.781L445.819 696.063L445.374 691.467L446.264 688.947L445.819 686.13L441.965 683.462L445.819 684.055L448.636 682.721L451.601 682.276L452.49 679.608L450.711 675.605L449.97 673.381L451.453 672.343L453.825 668.192L453.676 666.858L450.711 665.524L447.598 667.155L445.374 668.934L444.93 666.858L442.558 664.338L442.854 662.411L439.741 661.669L436.48 660.632L432.032 660.187L428.326 659.446L434.997 659.149L438.258 659.891L440.037 658.705V657.815L443.003 658.26L444.781 660.928L445.967 663.597V665.079L448.636 664.634L451.008 661.373L451.897 659.446L454.862 659.297L457.383 656.184L456.197 652.775L457.086 652.033L458.42 656.777L457.976 659.297L453.825 660.78L452.49 662.855L454.269 663.893L456.79 667.599L456.048 670.564L454.269 672.64L455.159 677.977L455.9 679.756H459.013L461.978 682.276L464.202 681.98L465.24 683.017L470.725 681.98L473.69 679.459L473.838 676.939L480.213 675.16L479.027 671.75L482.733 672.492L485.55 670.268L486.143 668.934L487.032 670.861L488.218 670.416L486.588 672.788L485.253 675.457L485.846 677.236L479.916 677.977L476.803 679.608L475.914 681.238L470.28 684.796L461.237 685.241L460.051 683.907L452.342 685.982L448.488 687.168L447.895 688.206L448.043 693.395V699.769L447.005 701.697L441.816 704.662V705.996L444.93 725.12L447.895 724.23L450.267 728.53L446.116 735.497L445.374 741.427L442.409 750.026L444.633 752.398L446.264 751.805L449.822 750.322L455.159 751.064L457.234 748.395L457.531 745.43L458.865 744.392L457.976 739.352L459.458 738.462L463.164 747.802L457.827 755.214L455.752 752.991L449.081 753.584L447.153 755.807L447.746 762.479L450.267 768.409L452.935 767.964L455.9 764.999L461.089 762.775L461.978 760.403L468.798 757.883L471.318 756.993L470.725 748.692L474.876 746.32L476.358 743.651L476.951 734.311L478.73 725.12L478.582 722.155L485.105 715.336L487.032 711.629L492.073 707.182L498.448 705.255H503.784L506.601 706.589L508.973 711.629L510.604 715.484L512.531 715.78L514.607 714.594L517.72 708.368L521.13 705.106L523.057 700.511L529.58 695.47L534.917 692.209L537.141 689.688L541.292 687.761L542.922 682.721L549.593 679.459L558.34 677.236L565.901 677.68L567.531 679.756L570.645 681.683H572.127L574.944 683.314L577.019 683.61L578.947 687.317L580.429 688.503L582.356 692.653L584.432 694.136L588.435 693.691L589.917 685.538L591.548 682.869L598.516 680.349L600.887 677.532L599.257 675.605L597.774 672.492L597.923 669.23L606.373 664.338L610.079 663.152L610.227 657.518L602.963 654.998L599.702 647.882L600.146 644.769L599.553 639.284L600.887 636.467L601.184 629.796L606.966 624.904V622.977L616.305 618.677L621.494 617.788L621.642 616.305L620.456 607.262L618.529 605.038L614.526 601.036L612.747 597.033L612.599 589.472L614.526 587.545L622.977 584.877L642.842 578.354L656.184 576.723L661.373 576.871L661.966 577.316L665.82 587.249L666.71 592.141L665.82 597.626L667.303 601.629L669.527 603.556L673.826 603.259L675.753 598.516L676.791 596.885H682.276L685.982 595.847L691.764 589.472L698.732 585.618L701.845 581.615V578.65L699.176 574.647L695.322 569.903L693.691 564.27L694.136 557.599L695.47 552.262L694.581 549.742L690.578 543.812L689.837 542.033L693.395 546.332L696.656 550.335L699.325 556.858L700.362 563.974L701.4 570.645L702.586 574.054L705.106 580.874L703.476 584.284L702.586 585.914L700.807 588.138L697.397 589.621L696.656 590.955L697.249 594.365L699.918 595.995L707.33 595.847L709.85 593.179L714.001 592.289L717.559 597.478L720.524 596.885L722.155 593.03L726.01 589.917L728.826 589.028L733.422 590.658L744.392 595.55L752.101 599.108L755.659 599.405L764.554 598.516L771.522 595.699L780.417 592.289L783.827 587.693H786.05L790.201 588.435L794.352 590.807L796.872 591.103L798.355 590.065L799.689 586.507L802.506 584.728L805.471 583.098L807.546 581.912L811.253 578.798L815.107 574.796V572.868L819.11 568.569L820.74 566.79L833.786 561.898L841.644 560.712L852.169 560.86L860.175 562.936L864.77 565.456L866.994 566.346L876.63 564.863L881.671 568.569L895.606 565.308H901.981L913.692 569.459L929.11 576.871L940.526 585.321L949.717 593.327L956.536 601.036L958.315 605.335L957.426 606.224L955.202 607.41L953.868 609.041L954.313 612.599L953.72 613.637L955.054 616.009L957.278 615.119L960.243 612.451L966.321 610.672L973.437 611.561L976.995 610.079L977.44 607.855L972.696 600.591L970.175 596.292L971.806 593.327L978.477 588.879L986.631 586.211H991.82L993.45 581.763L991.671 577.761L989.892 575.24L989.299 571.089L980.553 573.906L970.175 576.426H966.766L969.286 572.275L971.361 569.903L970.472 567.383L966.469 565.753L949.717 565.308L945.862 563.529L948.976 561.305L961.873 555.968L972.103 554.634H976.55V553.151L971.51 551.076L972.844 547.518L969.286 545.442L970.472 542.922L968.693 538.919L965.876 537.585L953.868 540.402L950.606 542.626L949.865 547.666L948.531 549.445L944.232 551.669L934.596 552.114L929.703 551.965L927.331 553.003L919.919 550.631L916.657 543.663L921.105 549.297L925.404 550.483L927.924 549V544.108L930.593 541.291L935.04 545.887L941.711 546.035L943.935 544.405V542.626L941.563 540.847L942.008 538.919L944.825 538.771L950.458 536.696L952.237 535.658L953.127 531.062L955.054 534.62L961.132 532.248L964.542 529.876L967.359 523.946L968.989 521.426L966.173 515.644L964.542 511.493L964.394 505.415L966.766 501.561L971.806 498.744L974.178 494L971.361 490.442L969.286 489.553L971.51 487.032L969.286 481.102L967.062 471.022L964.69 467.167H961.132L958.612 472.801L955.647 474.579L952.089 475.024L950.903 469.984L953.423 465.685L959.946 458.865L964.245 456.345L965.283 449.081L964.097 440.779V437.517L967.21 436.035L972.547 438.259L978.032 438.555L979.811 435.442L983.221 433.07L987.372 431.736L988.41 428.029L987.224 425.954L983.814 424.62L980.256 427.436L975.66 429.957L974.474 427.585L976.105 422.692L974.919 418.097L971.954 417.059L974.771 412.908L973.585 411.87L972.844 403.272L971.806 400.159L968.545 399.269L962.466 399.714L955.499 401.938L953.868 398.528L950.458 389.485L949.42 388.892L943.935 389.188L939.043 391.115L934.892 393.636L933.261 392.894L934.892 390.374L938.747 388.299L939.488 385.778L937.709 377.032L934.299 371.843L932.224 368.878L928.666 356.425L929.407 353.905L931.779 353.015L931.038 347.53L926.145 347.382L925.997 352.274L925.849 355.091L924.663 355.536L922.439 353.905L921.698 350.05L920.957 348.271L917.399 348.42L912.358 351.533L911.172 350.792L909.097 348.123V342.193L911.469 339.08L911.914 335.67L911.617 329.296L913.396 319.511L913.099 308.986L915.175 306.169L916.064 300.98L915.916 298.905L913.841 297.126L909.393 295.495L903.612 296.533L901.684 291.937L896.644 287.045L895.903 277.409L892.641 272.516L889.528 264.956L889.973 258.581L890.714 253.689L886.563 238.419L877.075 232.786L874.407 230.117L874.555 227.597L878.261 221.519L879.743 213.81L879.151 207.583L875.889 203.729L874.11 193.203L872.183 190.387L869.514 188.756L868.18 182.233L870.7 179.12V175.858L867.142 174.82L868.921 168.446L870.7 164.146L869.811 160.588L867.884 158.661L866.105 156.289L862.25 155.252L856.468 154.807L851.131 157.624L853.503 166.518L850.242 167.408L843.423 166.518L839.568 159.847L834.676 157.92L832.6 156.289L829.339 148.58L827.263 146.505L821.333 146.801L816.145 147.098L811.104 141.761L807.25 141.168L804.285 139.685V135.386L811.697 133.755L813.625 130.494L832.452 125.602L833.786 124.861L833.638 113.297L836.751 105.885L836.603 99.2135L834.528 92.0975L834.379 88.3913L837.937 82.4614L841.792 76.9762L842.83 72.5287L848.463 68.6742L850.539 68.0812L849.501 62.1513L847.277 60.6688L837.493 34.2805L835.269 32.5015L832.452 28.9435L829.487 27.1646L825.188 17.8249L825.336 14.2669L826.67 11.0054L828.746 8.92995L827.56 5.22373L821.63 3L808.732 3.44475L787.977 6.55797L783.975 5.07548H778.193L773.746 4.18599L766.037 5.81673L765.74 11.4502L765.295 15.8977L761.886 23.6066L761.441 25.9786L760.551 29.5365L761.589 40.6552L758.476 44.6579L757.883 47.3264L758.773 50.2914L761.293 52.5151L764.999 60.224L765.295 66.747L764.406 80.6824L764.851 83.7956L763.368 89.5773L763.516 95.0625L765.147 99.8065L765.74 102.327L766.63 106.033L764.851 109.294L762.627 115.817V122.044L760.848 130.79L761.737 137.017L761.144 144.429L759.81 147.839L752.546 153.769L750.471 155.4L742.169 158.365L741.576 160.588L735.497 163.85L726.158 166.37L724.527 168.297L722.748 174.969L712.222 177.785L711.778 180.157L709.702 181.492L712.815 186.236L706.885 188.459L704.069 186.68L699.325 186.829L700.955 190.387L701.993 199.726L699.621 203.729L697.99 210.4L689.54 215.144V220.333H685.686L684.203 220.036L680.942 221.667L679.608 225.225L681.387 226.856L681.238 228.635L679.311 229.969L675.753 229.079L670.861 230.265L671.009 233.675L666.562 234.12L667.006 236.492L665.672 237.826L655.147 240.791L652.775 240.05L649.068 249.983L643.88 251.613L641.359 246.276L639.284 246.721L638.246 249.686L633.799 250.576L632.761 249.834L628.61 255.319L625.349 264.659H628.462L629.5 276.964L625.942 282.004L622.828 296.384L618.826 301.573L616.157 307.948L615.861 310.913L609.931 317.287L608.003 319.808L605.335 322.773L587.397 326.775L580.429 328.11L574.055 327.368L571.386 324.7L567.68 323.069L561.602 324.552L557.154 326.034L556.116 329.444L550.038 333.002L544.405 335.077H537.734L533.434 333.595L531.359 331.371L525.577 322.921L519.499 324.552L518.461 328.11L519.054 330.778L520.981 333.002L529.135 340.266L530.025 343.083L529.432 344.565L524.243 348.42L523.057 350.05L523.502 354.498L522.76 356.129L523.65 358.056L521.723 363.689V365.913L524.095 370.212L530.025 379.997L533.286 383.406L536.844 384.444L543.96 382.665L552.262 380.59L556.709 382.369L563.084 385.778L567.531 386.075L568.717 389.485L566.939 389.781L565.011 387.261L560.712 386.371L539.216 389.485L531.359 390.819L527.356 386.075L519.351 385.482L515.941 378.07L515.793 374.956L516.386 371.25L516.682 366.061L515.644 363.689L507.935 358.797L506.898 356.573L508.528 352.422L508.973 348.123L507.639 345.9L505.267 345.01L504.822 346.196L505.119 350.792L501.709 355.98L494.89 358.204L493.852 359.242L492.221 360.576L491.035 362.8L490.294 363.096L489.997 366.358L488.218 370.064L484.512 373.326L480.658 374.512L471.021 375.549L469.391 374.512L464.35 367.099L462.868 364.875L457.976 363.393L454.269 363.838L453.38 365.024L453.973 367.84L455.9 370.657L458.717 372.14L460.792 388.743L459.162 390.374L458.124 393.043L456.048 394.673V396.897L452.046 404.161L446.709 416.021L447.005 419.431H449.229L452.49 422.099L453.973 431.587L450.118 438.407L448.191 445.819L446.709 456.938V463.313L444.633 468.65L442.558 472.801L440.63 479.472L434.108 487.922L426.399 488.811L424.916 493.259L418.838 494.148L416.614 492.369L408.312 484.364L406.978 484.809L407.274 490.442L400.9 494.593L391.412 494.741L389.188 496.372L389.633 498.892L399.121 500.671L398.38 501.116L390.819 502.154L381.924 502.599L378.218 503.933L378.366 506.156L379.848 508.825L379.997 514.014L376.29 517.275L369.768 517.868L373.326 527.801L375.846 529.728L376.735 534.472L375.401 539.068L373.919 543.96L371.398 554.189L368.878 556.709V559.823L365.617 562.639L354.201 564.715L353.015 566.79L351.533 571.386L348.568 575.685L346.048 578.354L345.158 580.726L338.784 585.025L336.115 582.356L320.994 583.839L319.363 584.877L318.622 586.804L319.066 593.475L318.325 600.146L316.546 605.78L313.581 612.896L308.393 619.863L300.832 622.68L298.312 626.831L288.972 629.944L284.969 634.985L282.301 636.467L280.077 639.58L277.26 640.766L275.63 638.987L269.403 641.656L268.365 642.842L267.772 645.066L267.031 647.141L264.214 650.699L255.023 656.184L253.985 658.556L244.942 661.225L238.716 659.446H236.344L231.155 661.373L228.486 661.818L227.449 661.225L225.818 656.481L224.928 655.591L218.109 657.222L213.513 656.925L213.365 657.963L214.996 663.3L216.034 667.599L213.365 674.122L200.171 690.726L192.017 699.028L188.608 702.586L189.645 707.775L189.349 710.295L187.57 712.667L184.901 715.187L183.715 717.115L184.901 711.185L186.087 708.664V703.92L185.198 703.031L180.009 701.252L175.265 699.176L174.227 697.546L170.225 697.101L166.963 695.767L165.481 692.95L163.702 690.43L160.885 684.796L160.588 682.276L162.664 677.532L161.181 676.198L159.551 677.087L158.661 679.015L156.438 680.794L154.362 679.163L150.656 676.198L147.987 674.715L140.278 676.494L137.313 678.718L133.607 677.829L131.532 679.459L125.898 679.904L124.119 678.57H121.599L120.265 680.201L112.259 682.573L111.518 687.317L108.257 689.095L106.922 691.616L99.51 693.098L98.1757 692.357L95.8038 693.543L95.359 696.508H91.5045L88.6878 700.659L83.0544 701.697L82.0166 700.214L79.1999 701.104L79.3481 706.441L75.9384 708.071L74.7524 709.554L70.305 710.74L68.8225 713.557L66.5987 714.15L65.4128 717.115L61.7065 720.969L58.5933 721.414L55.1836 720.524L47.1781 720.821L44.2132 723.637L41.9894 723.786L37.6902 722.303H34.7252L33.391 727.492L27.4611 731.791L23.9031 735.942L23.0136 737.425L20.7899 739.055L20.9381 746.468L20.1969 748.543L15.4529 750.915L14.5634 752.398L13.5257 752.843L13.6739 757.142L9.3747 758.476V760.996H11.7467L12.7844 763.516L14.5634 763.813L14.8599 774.042L16.9354 778.638L15.8976 781.751L17.8249 785.754L17.0836 788.719L20.3451 796.576L18.7144 803.84L7.74396 808.732L6.70622 813.328L3.44475 815.848L3 821.333L4.33424 823.705L6.11322 828.153L8.04046 829.635L10.7089 829.339L14.5218 829.917Z" fill="black" stroke="black" stroke-width="5"/>
<path fill-rule="evenodd" clip-rule="evenodd" d="M14.5218 829.917L19.5535 838.513V844.173L22.4887 849.205L27.1011 850.882L30.4556 849.624L37.3742 847.947L41.148 848.995L43.6639 847.318L45.1315 845.431L47.6473 844.383L52.2597 845.851L54.3563 844.593L62.5329 837.884L67.1453 839.351L70.0805 840.819L77.4184 836.626L81.1922 838.722L86.8529 836.835L89.5784 837.674L94.1908 835.578L94.6102 834.529L99.2226 831.804L100.061 828.03L105.303 829.497L107.818 828.868L108.447 826.143L112.431 823.208L114.318 816.918L115.576 814.822L115.995 806.855L118.092 805.387L118.511 803.291L119.14 799.097L117.672 794.485L116.414 793.017L114.527 790.921L111.383 785.47V784.002L115.576 779.809L119.978 778.132L122.914 776.664L124.801 774.987L124.172 771.004L125.01 768.278L132.138 765.972L155.83 766.391L161.7 772.471L182.036 783.164L187.068 795.743L186.384 797.762L190.238 796.576L194.241 794.945L195.575 793.463L198.244 792.277L201.357 792.425L203.729 793.907L212.327 792.87L217.516 798.503L223.594 802.506L225.966 806.212L230.858 805.619L241.977 804.581L247.314 806.36L248.352 807.546L251.613 814.81L255.912 815.552L263.177 823.705L272.22 833.342L278.743 844.164L280.225 848.611L278.002 854.245L278.298 855.431L283.635 856.913L284.525 858.396L285.71 862.25L288.082 865.512L287.341 868.477L289.417 873.517L291.196 874.555L292.233 877.668L290.751 879.892L290.454 882.412L290.306 885.377L288.231 887.897L287.638 889.528L284.228 892.196L283.042 895.31L283.487 897.237L285.562 900.943L292.085 901.981L293.864 904.649L291.937 907.614L292.382 909.69L296.384 915.175L297.126 923.18L301.573 922.143L305.576 924.959L312.692 929.852L314.026 932.668L315.36 939.784L320.252 940.229L324.107 940.822L326.479 938.153L335.077 936.819L336.115 931.186L334.336 930.889L333.15 927.924L334.633 925.849L334.484 919.474L339.228 918.436L339.673 914.878L345.01 912.062L345.455 902.426L347.53 899.609L348.865 896.496L354.943 893.975L359.538 894.568L363.986 893.827L368.285 895.458L369.916 895.161L371.991 893.382H374.363L375.401 895.013L376.735 894.568L380.738 897.83L384.444 899.461L388.15 897.978H389.781L393.784 889.38L395.859 888.045L395.711 885.08L394.08 883.45L394.525 881.078L393.636 879.002L398.083 874.406L412.167 869.514L412.315 865.512L411.425 862.843L413.204 861.805L413.946 856.32L416.169 854.541L418.245 853.355V850.687L415.873 849.649V847.87L417.207 845.794L411.722 836.158L405.644 835.417L404.606 834.528L405.051 830.673L407.719 827.115L408.461 819.703L404.903 819.999L401.048 818.665L393.043 819.258L391.115 817.182L394.229 816.738L398.676 815.404L398.38 814.366L393.487 811.401L392.301 810.66L385.334 808.881L378.959 808.436L368.137 809.918L361.021 810.808L348.716 811.253L352.422 809.029L354.646 807.843L353.46 804.433L353.015 800.43L356.425 805.026L361.169 804.581L367.247 804.137L369.175 801.172L372.436 799.837L371.547 802.061L373.326 802.654L376.142 805.026L379.848 804.581L385.037 801.765L388.002 801.023L392.894 802.951L396.749 802.654L397.935 801.468L400.307 798.355L404.458 795.983L405.792 795.39L405.199 793.166L401.938 792.128L400.159 787.384L401.196 784.716L400.455 778.638L405.495 775.673L408.905 773.597L414.39 771.374L413.649 769.298L412.463 767.964V766.333L415.28 763.516L416.911 761.589L425.064 759.069L427.14 759.217L430.105 762.182L431.439 761.737L432.032 759.514L429.808 753.435L427.288 752.25L421.358 753.287L419.134 755.066L416.762 751.508L413.649 748.395L412.463 745.727L410.24 744.985L401.048 740.538L399.566 738.611L403.272 738.759L406.237 738.611L412.315 741.131L419.579 743.948L422.099 744.985L425.806 743.355L430.846 739.204L433.07 735.497L432.032 731.939L429.66 730.605L426.695 729.419L425.509 725.416L425.657 716.522L421.951 713.112L416.318 707.923L413.649 701.845L412.167 700.511L408.905 700.066L406.682 698.583L403.42 697.101V696.063L409.35 696.953L411.129 696.804L413.501 698.139L416.021 698.287L418.986 700.362L420.913 696.804L422.099 700.362V703.624L425.954 707.478L425.657 712.222L428.326 708.813L430.846 704.217L434.701 703.92L435.738 703.031L438.11 702.141L440.186 698.583L439.593 696.36L439.148 694.877L442.706 695.322L443.744 698.435H444.781L445.819 696.063L445.374 691.467L446.264 688.947L445.819 686.13L441.965 683.462L445.819 684.055L448.636 682.721L451.601 682.276L452.49 679.608L450.711 675.605L449.97 673.381L451.453 672.343L453.825 668.192L453.676 666.858L450.711 665.524L447.598 667.155L445.374 668.934L444.93 666.858L442.558 664.338L442.854 662.411L439.741 661.669L436.48 660.632L432.032 660.187L428.326 659.446L434.997 659.149L438.258 659.891L440.037 658.705V657.815L443.003 658.26L444.781 660.928L445.967 663.597V665.079L448.636 664.634L451.008 661.373L451.897 659.446L454.862 659.297L457.383 656.184L456.197 652.775L457.086 652.033L458.42 656.777L457.976 659.297L453.825 660.78L452.49 662.855L454.269 663.893L456.79 667.599L456.048 670.564L454.269 672.64L455.159 677.977L455.9 679.756H459.013L461.978 682.276L464.202 681.98L465.24 683.017L470.725 681.98L473.69 679.459L473.838 676.939L480.213 675.16L479.027 671.75L482.733 672.492L485.55 670.268L486.143 668.934L487.032 670.861L488.218 670.416L486.588 672.788L485.253 675.457L485.846 677.236L479.916 677.977L476.803 679.608L475.914 681.238L470.28 684.796L461.237 685.241L460.051 683.907L452.342 685.982L448.488 687.168L447.895 688.206L448.043 693.395V699.769L447.005 701.697L441.816 704.662V705.996L444.93 725.12L447.895 724.23L450.267 728.53L446.116 735.497L445.374 741.427L442.409 750.026L444.633 752.398L446.264 751.805L449.822 750.322L455.159 751.064L457.234 748.395L457.531 745.43L458.865 744.392L457.976 739.352L459.458 738.462L463.164 747.802L457.827 755.214L455.752 752.991L449.081 753.584L447.153 755.807L447.746 762.479L450.267 768.409L452.935 767.964L455.9 764.999L461.089 762.775L461.978 760.403L468.798 757.883L471.318 756.993L470.725 748.692L474.876 746.32L476.358 743.651L476.951 734.311L478.73 725.12L478.582 722.155L485.105 715.336L487.032 711.629L492.073 707.182L498.448 705.255H503.784L506.601 706.589L508.973 711.629L510.604 715.484L512.531 715.78L514.607 714.594L517.72 708.368L521.13 705.106L523.057 700.511L529.58 695.47L534.917 692.209L537.141 689.688L541.292 687.761L542.922 682.721L549.593 679.459L558.34 677.236L565.901 677.68L567.531 679.756L570.645 681.683H572.127L574.944 683.314L577.019 683.61L578.947 687.317L580.429 688.503L582.356 692.653L584.432 694.136L588.435 693.691L589.917 685.538L591.548 682.869L598.516 680.349L600.887 677.532L599.257 675.605L597.774 672.492L597.923 669.23L606.373 664.338L610.079 663.152L610.227 657.518L602.963 654.998L599.702 647.882L600.146 644.769L599.553 639.284L600.887 636.467L601.184 629.796L606.966 624.904V622.977L616.305 618.677L621.494 617.788L621.642 616.305L620.456 607.262L618.529 605.038L614.526 601.036L612.747 597.033L612.599 589.472L614.526 587.545L622.977 584.877L642.842 578.354L656.184 576.723L661.373 576.871L661.966 577.316L665.82 587.249L666.71 592.141L665.82 597.626L667.303 601.629L669.527 603.556L673.826 603.259L675.753 598.516L676.791 596.885H682.276L685.982 595.847L691.764 589.472L698.732 585.618L701.845 581.615V578.65L699.176 574.647L695.322 569.903L693.691 564.27L694.136 557.599L695.47 552.262L694.581 549.742L690.578 543.812L689.837 542.033L693.395 546.332L696.656 550.335L699.325 556.858L700.362 563.974L701.4 570.645L702.586 574.054L705.106 580.874L703.476 584.284L702.586 585.914L700.807 588.138L697.397 589.621L696.656 590.955L697.249 594.365L699.918 595.995L707.33 595.847L709.85 593.179L714.001 592.289L717.559 597.478L720.524 596.885L722.155 593.03L726.01 589.917L728.826 589.028L733.422 590.658L744.392 595.55L752.101 599.108L755.659 599.405L764.554 598.516L771.522 595.699L780.417 592.289L783.827 587.693H786.05L790.201 588.435L794.352 590.807L796.872 591.103L798.355 590.065L799.689 586.507L802.506 584.728L805.471 583.098L807.546 581.912L811.253 578.798L815.107 574.796V572.868L819.11 568.569L820.74 566.79L833.786 561.898L841.644 560.712L852.169 560.86L860.175 562.936L864.77 565.456L866.994 566.346L876.63 564.863L881.671 568.569L895.606 565.308H901.981L913.692 569.459L929.11 576.871L940.526 585.321L949.717 593.327L956.536 601.036L958.315 605.335L957.426 606.224L955.202 607.41L953.868 609.041L954.313 612.599L953.72 613.637L955.054 616.009L957.278 615.119L960.243 612.451L966.321 610.672L973.437 611.561L976.995 610.079L977.44 607.855L972.696 600.591L970.175 596.292L971.806 593.327L978.477 588.879L986.631 586.211H991.82L993.45 581.763L991.671 577.761L989.892 575.24L989.299 571.089L980.553 573.906L970.175 576.426H966.766L969.286 572.275L971.361 569.903L970.472 567.383L966.469 565.753L949.717 565.308L945.862 563.529L948.976 561.305L961.873 555.968L972.103 554.634H976.55V553.151L971.51 551.076L972.844 547.518L969.286 545.442L970.472 542.922L968.693 538.919L965.876 537.585L953.868 540.402L950.606 542.626L949.865 547.666L948.531 549.445L944.232 551.669L934.596 552.114L929.703 551.965L927.331 553.003L919.919 550.631L916.657 543.663L921.105 549.297L925.404 550.483L927.924 549V544.108L930.593 541.291L935.04 545.887L941.711 546.035L943.935 544.405V542.626L941.563 540.847L942.008 538.919L944.825 538.771L950.458 536.696L952.237 535.658L953.127 531.062L955.054 534.62L961.132 532.248L964.542 529.876L967.359 523.946L968.989 521.426L966.173 515.644L964.542 511.493L964.394 505.415L966.766 501.561L971.806 498.744L974.178 494L971.361 490.442L969.286 489.553L971.51 487.032L969.286 481.102L967.062 471.022L964.69 467.167H961.132L958.612 472.801L955.647 474.579L952.089 475.024L950.903 469.984L953.423 465.685L959.946 458.865L964.245 456.345L965.283 449.081L964.097 440.779V437.517L967.21 436.035L972.547 438.259L978.032 438.555L979.811 435.442L983.221 433.07L987.372 431.736L988.41 428.029L987.224 425.954L983.814 424.62L980.256 427.436L975.66 429.957L974.474 427.585L976.105 422.692L974.919 418.097L971.954 417.059L974.771 412.908L973.585 411.87L972.844 403.272L971.806 400.159L968.545 399.269L962.466 399.714L955.499 401.938L953.868 398.528L950.458 389.485L949.42 388.892L943.935 389.188L939.043 391.115L934.892 393.636L933.261 392.894L934.892 390.374L938.747 388.299L939.488 385.778L937.709 377.032L934.299 371.843L932.224 368.878L928.666 356.425L929.407 353.905L931.779 353.015L931.038 347.53L926.145 347.382L925.997 352.274L925.849 355.091L924.663 355.536L922.439 353.905L921.698 350.05L920.957 348.271L917.399 348.42L912.358 351.533L911.172 350.792L909.097 348.123V342.193L911.469 339.08L911.914 335.67L911.617 329.296L913.396 319.511L913.099 308.986L915.175 306.169L916.064 300.98L915.916 298.905L913.841 297.126L909.393 295.495L903.612 296.533L901.684 291.937L896.644 287.045L895.903 277.409L892.641 272.516L889.528 264.956L889.973 258.581L890.714 253.689L886.563 238.419L877.075 232.786L874.407 230.117L874.555 227.597L878.261 221.519L879.743 213.81L879.151 207.583L875.889 203.729L874.11 193.203L872.183 190.387L869.514 188.756L868.18 182.233L870.7 179.12V175.858L867.142 174.82L868.921 168.446L870.7 164.146L869.811 160.588L867.884 158.661L866.105 156.289L862.25 155.252L856.468 154.807L851.131 157.624L853.503 166.518L850.242 167.408L843.423 166.518L839.568 159.847L834.676 157.92L832.6 156.289L829.339 148.58L827.263 146.505L821.333 146.801L816.145 147.098L811.104 141.761L807.25 141.168L804.285 139.685V135.386L811.697 133.755L813.625 130.494L832.452 125.602L833.786 124.861L833.638 113.297L836.751 105.885L836.603 99.2135L834.528 92.0975L834.379 88.3913L837.937 82.4614L841.792 76.9762L842.83 72.5287L848.463 68.6742L850.539 68.0812L849.501 62.1513L847.277 60.6688L837.493 34.2805L835.269 32.5015L832.452 28.9435L829.487 27.1646L825.188 17.8249L825.336 14.2669L826.67 11.0054L828.746 8.92995L827.56 5.22373L821.63 3L808.732 3.44475L787.977 6.55797L783.975 5.07548H778.193L773.746 4.18599L766.037 5.81673L765.74 11.4502L765.295 15.8977L761.886 23.6066L761.441 25.9786L760.551 29.5365L761.589 40.6552L758.476 44.6579L757.883 47.3264L758.773 50.2914L761.293 52.5151L764.999 60.224L765.295 66.747L764.406 80.6824L764.851 83.7956L763.368 89.5773L763.516 95.0625L765.147 99.8065L765.74 102.327L766.63 106.033L764.851 109.294L762.627 115.817V122.044L760.848 130.79L761.737 137.017L761.144 144.429L759.81 147.839L752.546 153.769L750.471 155.4L742.169 158.365L741.576 160.588L735.497 163.85L726.158 166.37L724.527 168.297L722.748 174.969L712.222 177.785L711.778 180.157L709.702 181.492L712.815 186.236L706.885 188.459L704.069 186.68L699.325 186.829L700.955 190.387L701.993 199.726L699.621 203.729L697.99 210.4L689.54 215.144V220.333H685.686L684.203 220.036L680.942 221.667L679.608 225.225L681.387 226.856L681.238 228.635L679.311 229.969L675.753 229.079L670.861 230.265L671.009 233.675L666.562 234.12L667.006 236.492L665.672 237.826L655.147 240.791L652.775 240.05L649.068 249.983L643.88 251.613L641.359 246.276L639.284 246.721L638.246 249.686L633.799 250.576L632.761 249.834L628.61 255.319L625.349 264.659H628.462L629.5 276.964L625.942 282.004L622.828 296.384L618.826 301.573L616.157 307.948L615.861 310.913L609.931 317.287L608.003 319.808L605.335 322.773L587.397 326.775L580.429 328.11L574.055 327.368L571.386 324.7L567.68 323.069L561.602 324.552L557.154 326.034L556.116 329.444L550.038 333.002L544.405 335.077H537.734L533.434 333.595L531.359 331.371L525.577 322.921L519.499 324.552L518.461 328.11L519.054 330.778L520.981 333.002L529.135 340.266L530.025 343.083L529.432 344.565L524.243 348.42L523.057 350.05L523.502 354.498L522.76 356.129L523.65 358.056L521.723 363.689V365.913L524.095 370.212L530.025 379.997L533.286 383.406L536.844 384.444L543.96 382.665L552.262 380.59L556.709 382.369L563.084 385.778L567.531 386.075L568.717 389.485L566.939 389.781L565.011 387.261L560.712 386.371L539.216 389.485L531.359 390.819L527.356 386.075L519.351 385.482L515.941 378.07L515.793 374.956L516.386 371.25L516.682 366.061L515.644 363.689L507.935 358.797L506.898 356.573L508.528 352.422L508.973 348.123L507.639 345.9L505.267 345.01L504.822 346.196L505.119 350.792L501.709 355.98L494.89 358.204L493.852 359.242L492.221 360.576L491.035 362.8L490.294 363.096L489.997 366.358L488.218 370.064L484.512 373.326L480.658 374.512L471.021 375.549L469.391 374.512L464.35 367.099L462.868 364.875L457.976 363.393L454.269 363.838L453.38 365.024L453.973 367.84L455.9 370.657L458.717 372.14L460.792 388.743L459.162 390.374L458.124 393.043L456.048 394.673V396.897L452.046 404.161L446.709 416.021L447.005 419.431H449.229L452.49 422.099L453.973 431.587L450.118 438.407L448.191 445.819L446.709 456.938V463.313L444.633 468.65L442.558 472.801L440.63 479.472L434.108 487.922L426.399 488.811L424.916 493.259L418.838 494.148L416.614 492.369L408.312 484.364L406.978 484.809L407.274 490.442L400.9 494.593L391.412 494.741L389.188 496.372L389.633 498.892L399.121 500.671L398.38 501.116L390.819 502.154L381.924 502.599L378.218 503.933L378.366 506.156L379.848 508.825L379.997 514.014L376.29 517.275L369.768 517.868L373.326 527.801L375.846 529.728L376.735 534.472L375.401 539.068L373.919 543.96L371.398 554.189L368.878 556.709V559.823L365.617 562.639L354.201 564.715L353.015 566.79L351.533 571.386L348.568 575.685L346.048 578.354L345.158 580.726L338.784 585.025L336.115 582.356L320.994 583.839L319.363 584.877L318.622 586.804L319.066 593.475L318.325 600.146L316.546 605.78L313.581 612.896L308.393 619.863L300.832 622.68L298.312 626.831L288.972 629.944L284.969 634.985L282.301 636.467L280.077 639.58L277.26 640.766L275.63 638.987L269.403 641.656L268.365 642.842L267.772 645.066L267.031 647.141L264.214 650.699L255.023 656.184L253.985 658.556L244.942 661.225L238.716 659.446H236.344L231.155 661.373L228.486 661.818L227.449 661.225L225.818 656.481L224.928 655.591L218.109 657.222L213.513 656.925L213.365 657.963L214.996 663.3L216.034 667.599L213.365 674.122L200.171 690.726L192.017 699.028L188.608 702.586L189.645 707.775L189.349 710.295L187.57 712.667L184.901 715.187L183.715 717.115L184.901 711.185L186.087 708.664V703.92L185.198 703.031L180.009 701.252L175.265 699.176L174.227 697.546L170.225 697.101L166.963 695.767L165.481 692.95L163.702 690.43L160.885 684.796L160.588 682.276L162.664 677.532L161.181 676.198L159.551 677.087L158.661 679.015L156.438 680.794L154.362 679.163L150.656 676.198L147.987 674.715L140.278 676.494L137.313 678.718L133.607 677.829L131.532 679.459L125.898 679.904L124.119 678.57H121.599L120.265 680.201L112.259 682.573L111.518 687.317L108.257 689.095L106.922 691.616L99.51 693.098L98.1757 692.357L95.8038 693.543L95.359 696.508H91.5045L88.6878 700.659L83.0544 701.697L82.0166 700.214L79.1999 701.104L79.3481 706.441L75.9384 708.071L74.7524 709.554L70.305 710.74L68.8225 713.557L66.5987 714.15L65.4128 717.115L61.7065 720.969L58.5933 721.414L55.1836 720.524L47.1781 720.821L44.2132 723.637L41.9894 723.786L37.6902 722.303H34.7252L33.391 727.492L27.4611 731.791L23.9031 735.942L23.0136 737.425L20.7899 739.055L20.9381 746.468L20.1969 748.543L15.4529 750.915L14.5634 752.398L13.5257 752.843L13.6739 757.142L9.3747 758.476V760.996H11.7467L12.7844 763.516L14.5634 763.813L14.8599 774.042L16.9354 778.638L15.8976 781.751L17.8249 785.754L17.0836 788.719L20.3451 796.576L18.7144 803.84L7.74396 808.732L6.70622 813.328L3.44475 815.848L3 821.333L4.33424 823.705L6.11322 828.153L8.04046 829.635L10.7089 829.339L14.5218 829.917Z" fill="#B69B79"/>
</svg>
