<svg fill="none" height="285" viewBox="0 0 245 285" width="245" xmlns="http://www.w3.org/2000/svg"><g fill="#b69b79"><path d="m103.572 8.16568s-12.8216 3.47872-20.2101 15.86362c-7.3884 12.388-3.9006 26.7308-3.9006 26.7308s5.643-4.4895 8.4721-9.7045c2.8291-5.2151 2.3192-10.8672 5.0694-17.8944 2.5619-6.5628 10.5692-14.99552 10.5692-14.99552zm-24.9364 50.65372s11.8993-8.7999 19.2877-22.9273c7.3887-14.1273 13.8027-26.07813 22.9277-31.62099 8.651-5.248419 23.255-6.5203 43.954 1.13832 18.338 6.78437 25.48 16.57397 25.48 16.57397s-28.95-6.4566-40.964-2.1735c-15.539 5.5429-23.811 22.2626-31.293 28.9043-13.481 11.9539-39.3924 10.1052-39.3924 10.1052z"/><path d="m214.509 46.0005s-4.672-11.6261-18.472-15.4296c-13.799-3.8035-25.968-6.9544-38.9-4.5624-12.931 2.392-19.124 10.9734-19.233 14.2336-.109 3.2601 9.234 12.9313 23.58 13.2561s29.053-8.2688 33.142-10.8672c8.639-5.4882 19.883 3.3695 19.883 3.3695zm-80.621 1.9548s6.193 5.977 4.887 10.2146c-1.305 4.2376-4.559 7.604-11.841 8.1503-7.276.5434-20.208.1093-21.95-2.4982-1.73-2.6075 1.742-3.9128 3.154-4.2376 1.417-.3248 9.677-.3248 14.671-2.9353 4.99-2.6075 11.079-8.6938 11.079-8.6938zm-12.154 27.4928s21.27-7.1699 23.562-7.173c6.411-.003 13.978 11.532 14.67 21.5158 1.087 15.7541-17.712 21.9471-17.712 21.9471s7.498-9.671 7.607-17.1692c.109-7.4977-2.683-12.1117-5.977-13.9087-5.977-3.2572-22.15-5.212-22.15-5.212zm32.686-13.9118s15.539 21.625 29.773 21.625c14.233 0 19.992-7.4977 30.968-7.0636 10.977.434 20.863 18.6897 20.863 18.6897s-2.607-43.0286-31.077-42.9193c-28.467.1093-28.747 9.7805-36.074 10.3208-8.093.598-14.453-.6526-14.453-.6526zm-37.315 22.0621s6.657 9.2736 6.514 16.9476c-.149 7.68-6.089 26.515-4.489 37.091 1.587 10.573 21.737 22.314 21.737 22.314s-10.397-15.53-11.122-25.104c-.723-9.562 4.747-19.81 2.862-31.257-1.879-11.4466-15.502-19.9916-15.502-19.9916zm51.227-.2914s2.025 6.66 2.025 10.7215c0 6.2315-12.176 15.6455-12.169 27.4535.006 13.277 12.897 19.485 15.068 25.422 1.991 5.449 2.95 13.332 2.95 13.332s12.279-24.888 10.664-41.001c-3.181-31.8725-18.538-35.928-18.538-35.928z"/><path d="m186.476 92.5077s6.301-5.7584 12.822-5.3243c6.52.4371 18.255 2.392 22.708 22.4936 4.453 20.104 1.157 37.549 2.174 45.205 1.845 13.908 6.736 18.908 6.736 18.908s-19.124-7.392-24.23-19.449c0 0-8.366-14.127-8.366-33.685 0-15.111-11.844-28.1483-11.844-28.1483zm36.836-.4371s8.365 16.6254 10.757 34.8814c2.517 19.199 3.151 33.284 3.151 33.284s9.453-12.424 6.736-35.458c-2.486-21.081-20.644-32.7074-20.644-32.7074zm-111.486 58.8894s-11.8446-5.54-15.976-19.349c-4.1252-13.799.2125-16.188-1.3113-28.901-1.5239-12.7127-24.0778-26.8704-9.4435-35.2059 11.626-6.6296 25.7408 11.0827 28.6768 25.4255 4.814 23.5224-6.742 32.8684-6.196 42.4854.553 9.577 4.25 15.545 4.25 15.545zm30.571-29.187s-3.622 8.618 1.011 20.933c4.638 12.318 13.474 12.895 14.78 25.499 1.353 13.092-1.594 32.164-1.594 32.164s16.437-15.512 12.895-35.352c-2.174-12.172-9.48-17.242-13.976-22.894-5.011-6.292-13.116-20.353-13.116-20.35zm46.65 29.187s1.967 14.601-6.002 24.451c-6.687 8.269-15.839 14.494-15.969 27.708-.104 10.567 19.94 25.21 19.94 25.21s-6.63-12.928-1.451-21.582c3.497-5.847 11.301-18.538 12.931-29.269 3.288-21.579-9.449-26.518-9.449-26.518zm15.502 12.172s3.512 19.267 3.479 27.384c-.073 16.659-8.26 32.018-8.26 32.018s16.037-8.441 16.225-30.716c.149-17.093-11.444-28.686-11.444-28.686zm-83.592-3.472s9.343 7.698 9.492 20.447c.194 16.977 18.465 25.911 18.465 25.911s-2.465-3.913-3.042-9.999c-.579-6.083 4.751-15.008-1.885-23.468-11.586-14.777-23.03-12.891-23.03-12.891zm-27.5293-12.316s2.5923.741 3.3391 5.792c1.7363 11.881-13.9635 30.431-12.3243 45.205 5.0785 45.636 50.4955 52.882 50.4955 52.882s-13.978-11.732-16.303-27.818c-2.757-19.135 8.253-35.169 2.325-48.674-11.329-25.793-27.5323-27.387-27.5323-27.387z"/><path d="m126.46 199.279s-4.055 23.689 8.478 43.684c12.531 19.992 36.436 41.869 36.436 41.869s-.726-38.827-10.722-53.458c-9.999-14.635-34.192-32.095-34.192-32.095zm44.188 27.025s-2.607 5.501 0 13.472c2.608 7.968 10.868 16.805 10.868 16.805s-1.594-3.191-1.74-7.969c-.143-4.781 1.035-9.367-.434-13.043-2.899-7.24-8.694-9.265-8.694-9.265zm-128.7271-32.744c-3.8399-1.581-6.2926-.437-8.1109 2.319-1.8182 2.751 2.4649 11.086 2.4649 11.086l5.646-.871s.6527 4.128 1.961 7.024c1.3113 2.896 4.0615 5.938 4.0615 5.938s4.6262-6.882 8.7696-8.916c4.1193-2.021 8.6452-3.178 10.9401-4.274 5.7219-2.747 10.94-14.916 10.94-14.916s-9.4223 5.722-17.8216 8.329c-4.4895 1.399-11.2253 2.465-11.2253 2.465s-5.039-7.115-7.6253-8.184zm-16.7318-53.17s-4.7839 1.375-7.8255.58c-3.0416-.796-5.725-5-9.92922-5.504-4.2042-.507-6.30175.796-7.245799 2.028-.947083 1.233 1.878999 9.128 3.906729 11.304 2.0338 2.171 6.66899 6.66 7.25189 8.473.5737 1.821.8013 17.757 12.3151 24.924 11.5228 7.167 32.8959 4.997 35.2819 3.983 2.3889-1.014 8.7665-7.395 6.4444-9.632-2.3192-2.249-11.8811 5.789-26.8766 4.122-11.8537-1.323-22.5296-5.873-21.3002-22.317.6344-8.46 6.8117-7.315 8.114-12.676 1.3113-5.358-.1367-5.285-.1367-5.285zm29.4173-10.94h-2.6075s-8.117 5.506-8.1808 6.885c-.0637 1.375 12.2423 6.156 12.2423 6.156s.5039 5.649 5.8707 7.968c5.3668 2.328 15.724.947 15.724.947l-13.335-7.826s.3157-1.681.0637-2.173c-.4432-.923-3.2541-2.462-3.2541-2.462s.6527-2.101-.4037-3.187c-1.0503-1.087-7.2094-1.74-7.2094-1.74zm.425-31.873s21.9286 2.814 22.5994 5.361c1.8851 7.1-19.0448 15.575-19.0448 15.575l5.5793-6.954s-1.8851-1.451-2.0338-4.563c-.1457-3.114 1.3811-4.128 1.3811-4.128zm15.7877-49.1148s1.8851 4.9995 1.5876 8.2597c-.2914 3.2601-.3309 5.6825.0364 6.8086.8348 2.5499 3.5971 3.9827 3.5971 3.9827s-3.9826 2.6075-5.725 4.6352c-1.7363 2.0277-2.7471 4.1283-4.7081 5.215-1.9609 1.0867-14.1273 6.0134-17.3905 8.8395-3.2632 2.826-23.2521 34.2651-24.703 36.2201-1.4541 1.955-13.0376 8.111-13.0376 8.111s7.3156-6.955 9.6985-9.851c2.3889-2.899 18.0128-34.0946 23.076-37.8131 5.0511-3.7094 18.2192-11.2284 19.8098-14.1274 1.6089-2.8928 7.7588-20.2803 7.7588-20.2803z"/></g></svg>