<svg width="266" height="309" viewBox="0 0 266 309" fill="none" xmlns="http://www.w3.org/2000/svg">
<path d="M153.55 8.85332C153.55 8.85332 167.471 12.625 175.493 26.0528C183.514 39.484 179.728 55.0346 179.728 55.0346C179.728 55.0346 173.601 50.1671 170.529 44.5129C167.458 38.8586 168.011 32.7306 165.025 25.1116C162.244 17.9962 153.55 8.85332 153.55 8.85332ZM180.624 63.7726C180.624 63.7726 167.705 54.2317 159.683 38.9146C151.661 23.5976 144.697 10.6404 134.79 4.63078C125.398 -1.05961 109.542 -2.4386 87.0687 5.86496C67.1588 13.2206 59.4047 23.8346 59.4047 23.8346C59.4047 23.8346 90.8361 16.8343 103.88 21.4781C120.751 27.4878 129.732 45.6154 137.855 52.8164C152.492 65.777 180.624 63.7726 180.624 63.7726Z" fill="#B69B79"/>
<path d="M33.1043 49.8741C33.1043 49.8741 38.1768 37.2689 53.1596 33.1451C68.1414 29.0213 81.3535 25.6051 95.3939 28.1985C109.433 30.7919 116.157 40.096 116.275 43.6307C116.394 47.1654 106.25 57.651 90.6743 58.0031C75.0987 58.3553 59.1311 49.038 54.6916 46.2208C45.3121 40.2704 33.1043 49.8741 33.1043 49.8741ZM120.636 51.9935C120.636 51.9935 113.912 58.4738 115.33 63.0682C116.747 67.6627 120.28 71.3126 128.186 71.9049C136.085 72.494 150.126 72.0234 152.017 69.1963C153.895 66.3692 150.126 64.954 148.593 64.6019C147.054 64.2497 138.086 64.2497 132.664 61.4194C127.247 58.5923 120.636 51.9935 120.636 51.9935ZM133.831 81.8015C133.831 81.8015 110.738 74.0278 108.25 74.0244C101.289 74.0212 93.0738 86.5275 92.3224 97.3521C91.1423 114.433 111.553 121.147 111.553 121.147C111.553 121.147 103.412 110.662 103.294 102.532C103.175 94.4032 106.207 89.4007 109.783 87.4524C116.272 83.9209 133.831 81.8015 133.831 81.8015ZM98.3438 66.7181C98.3438 66.7181 81.4729 90.1642 66.0189 90.1642C50.5659 90.1642 44.3133 82.0351 32.3965 82.5058C20.4786 82.9763 9.74519 102.769 9.74519 102.769C9.74519 102.769 12.5756 56.1173 43.4859 56.2358C74.393 56.3543 74.697 66.8399 82.652 67.4257C91.4387 68.074 98.3438 66.7181 98.3438 66.7181ZM138.857 90.6381C138.857 90.6381 131.63 100.693 131.785 109.013C131.947 117.34 138.396 137.761 136.659 149.227C134.936 160.691 113.058 173.42 113.058 173.42C113.058 173.42 124.347 156.583 125.134 146.202C125.919 135.835 119.98 124.724 122.027 112.313C124.067 99.9027 138.857 90.6381 138.857 90.6381ZM83.2394 90.3222C83.2394 90.3222 81.0408 97.543 81.0408 101.947C81.0408 108.703 94.2604 118.91 94.2528 131.712C94.2463 146.107 80.2504 152.838 77.8933 159.275C75.7317 165.183 74.6905 173.729 74.6905 173.729C74.6905 173.729 61.359 146.746 63.1124 129.276C66.5661 94.7192 83.2394 90.3222 83.2394 90.3222Z" fill="#B69B79"/>
<path d="M63.5403 100.298C63.5403 100.298 56.6992 94.0547 49.6193 94.5254C42.5404 94.9993 29.7996 97.1188 24.9649 118.913C20.1302 140.71 23.7087 159.624 22.6045 167.925C20.6014 183.004 15.2912 188.425 15.2912 188.425C15.2912 188.425 36.0544 180.411 41.598 167.338C41.598 167.338 50.6811 152.022 50.6811 130.817C50.6811 114.433 63.5403 100.298 63.5403 100.298ZM23.5469 99.8241C23.5469 99.8241 14.4649 117.85 11.8679 137.643C9.13515 158.459 8.44681 173.73 8.44681 173.73C8.44681 173.73 -1.81644 160.26 1.13345 135.286C3.83253 112.43 23.5469 99.8241 23.5469 99.8241ZM144.589 163.673C144.589 163.673 157.449 157.666 161.934 142.694C166.413 127.733 161.704 125.143 163.358 111.359C165.012 97.5762 189.5 82.2263 173.611 73.1889C160.988 66.001 145.664 85.2049 142.476 100.755C137.249 126.259 149.796 136.392 149.203 146.819C148.603 157.202 144.589 163.673 144.589 163.673ZM111.397 132.028C111.397 132.028 115.33 141.372 110.3 154.724C105.264 168.079 95.6709 168.704 94.253 182.37C92.784 196.564 95.9836 217.242 95.9836 217.242C95.9836 217.242 78.1377 200.424 81.9833 178.913C84.3437 165.716 92.2759 160.219 97.1573 154.091C102.598 147.27 111.397 132.025 111.397 132.028ZM60.7489 163.673C60.7489 163.673 58.6133 179.503 67.2654 190.183C74.5256 199.148 84.462 205.897 84.6032 220.224C84.7161 231.681 62.954 247.557 62.954 247.557C62.954 247.557 70.1523 233.54 64.5294 224.157C60.7326 217.818 52.2597 204.058 50.49 192.424C46.9202 169.028 60.7489 163.673 60.7489 163.673ZM43.9182 176.87C43.9182 176.87 40.1052 197.759 40.141 206.56C40.2202 224.622 49.109 241.274 49.109 241.274C49.109 241.274 31.6974 232.122 31.4933 207.971C31.3315 189.439 43.9182 176.87 43.9182 176.87ZM134.675 173.105C134.675 173.105 124.531 181.452 124.37 195.274C124.159 213.681 104.322 223.367 104.322 223.367C104.322 223.367 106.998 219.125 107.625 212.526C108.253 205.931 102.466 196.254 109.671 187.082C122.25 171.06 134.675 173.105 134.675 173.105ZM164.564 159.752C164.564 159.752 161.75 160.556 160.939 166.032C159.054 178.913 176.099 199.026 174.32 215.044C168.806 264.523 119.496 272.379 119.496 272.379C119.496 272.379 134.672 259.659 137.196 242.218C140.19 221.472 128.236 204.088 134.672 189.445C146.972 161.48 164.564 159.752 164.564 159.752Z" fill="#B69B79"/>
<path d="M128.701 216.061C128.701 216.061 133.103 241.744 119.496 263.423C105.891 285.099 79.9368 308.818 79.9368 308.818C79.9368 308.818 80.7251 266.721 91.5779 250.858C102.434 234.991 128.701 216.061 128.701 216.061ZM80.7251 245.361C80.7251 245.361 83.5555 251.326 80.7251 259.968C77.8935 268.607 68.9255 278.188 68.9255 278.188C68.9255 278.188 70.6561 274.728 70.8147 269.548C70.9699 264.364 69.6909 259.392 71.2859 255.407C74.4333 247.557 80.7251 245.361 80.7251 245.361ZM220.486 209.86C224.655 208.146 227.318 209.386 229.292 212.374C231.266 215.357 226.616 224.394 226.616 224.394L220.486 223.449C220.486 223.449 219.777 227.925 218.357 231.065C216.933 234.205 213.947 237.503 213.947 237.503C213.947 237.503 208.924 230.041 204.426 227.836C199.954 225.645 195.04 224.391 192.548 223.202C186.336 220.224 180.67 207.03 180.67 207.03C180.67 207.03 190.9 213.234 200.02 216.061C204.894 217.577 212.207 218.733 212.207 218.733C212.207 218.733 217.678 211.019 220.486 209.86ZM238.652 152.213C238.652 152.213 243.846 153.703 247.148 152.841C250.45 151.978 253.364 147.42 257.928 146.874C262.493 146.324 264.77 147.737 265.795 149.073C266.824 150.409 263.755 158.969 261.554 161.329C259.346 163.682 254.313 168.549 253.68 170.515C253.057 172.489 252.81 189.767 240.31 197.538C227.799 205.308 204.594 202.956 202.003 201.856C199.41 200.757 192.486 193.839 195.007 191.413C197.525 188.975 207.906 197.69 224.187 195.882C237.057 194.448 248.648 189.515 247.313 171.686C246.624 162.514 239.917 163.755 238.503 157.943C237.08 152.133 238.652 152.213 238.652 152.213ZM206.713 140.351H209.544C209.544 140.351 218.357 146.321 218.426 147.816C218.495 149.307 205.134 154.49 205.134 154.49C205.134 154.49 204.587 160.615 198.761 163.129C192.934 165.653 181.689 164.156 181.689 164.156L196.167 155.671C196.167 155.671 195.824 153.849 196.098 153.315C196.579 152.314 199.631 150.646 199.631 150.646C199.631 150.646 198.922 148.368 200.069 147.19C201.209 146.012 207.896 145.304 207.896 145.304L206.713 140.351ZM206.252 105.794C206.252 105.794 182.443 108.845 181.715 111.607C179.668 119.305 202.392 128.493 202.392 128.493L196.335 120.954C196.335 120.954 198.382 119.38 198.543 116.006C198.701 112.63 197.043 111.531 197.043 111.531L206.252 105.794ZM189.111 52.5435C189.111 52.5435 187.064 57.964 187.387 61.4987C187.703 65.0333 187.746 67.6597 187.348 68.8807C186.441 71.6453 183.442 73.1987 183.442 73.1987C183.442 73.1987 187.766 76.0258 189.658 78.2243C191.543 80.4227 192.64 82.7002 194.769 83.8784C196.898 85.0567 210.108 90.3982 213.651 93.4623C217.193 96.5263 238.896 130.613 240.471 132.733C242.05 134.852 254.626 141.527 254.626 141.527C254.626 141.527 246.683 133.986 244.096 130.846C241.503 127.703 224.54 93.8803 219.042 89.8486C213.558 85.8269 199.261 77.6747 197.535 74.5316C195.788 71.3952 189.111 52.5435 189.111 52.5435Z" fill="#B69B79"/>
</svg>
