<svg width="225" height="250" viewBox="0 0 225 250" fill="none" xmlns="http://www.w3.org/2000/svg">
<path d="M86.8582 3.82161C125.272 -13.7778 148.107 33.5315 127.141 61.8396C123.081 32.5566 104.446 18.7447 86.8582 3.82161V3.82161ZM173.178 67.9462C183.083 73.7168 187.197 85.6365 199.074 89.3181C194.515 112.258 212.314 132.449 193.319 113.745V92.3729C175.743 82.176 163.55 51.1582 135.774 61.8365C144.478 48.9056 138.744 21.3514 141.528 9.92526C156.369 14.2941 170.365 29.7379 161.672 49.6202C177.746 40.495 211.278 53.3532 207.709 64.8884C201.156 59.1359 176.251 59.8746 173.178 67.9462V67.9462ZM175.092 113.745C175.092 113.745 166.885 99.8148 154.229 92.6273C151.878 91.2921 177.009 92.6273 177.009 92.6273L175.092 113.745ZM118.508 61.8365C102.603 40.0378 77.3809 28.1212 40.8183 28.2483C62.5602 -16.6117 123.692 31.8724 118.508 61.8365ZM23.5526 107.641C34.1083 76.9685 76.0344 68.2369 115.627 74.0499C37.1409 94.6406 127.806 180.773 115.627 223.677C109.83 244.11 72.5652 257.837 40.8183 245.052C106.503 231.449 37.4319 108.737 83.9768 83.2144C24.9477 100.351 90.4443 209.783 46.5754 217.57C58.6974 209.151 56.9628 200.316 55.2739 196.329C40.1165 166.903 10.415 145.822 23.5526 107.641ZM112.751 64.8914C59.2023 54.6308 15.8555 79.5692 9.16549 129.016C-31.6736 44.8244 74.9873 14.4485 112.751 64.8914V64.8914ZM115.627 83.2114C92.3243 113.696 108.392 162.965 155.915 153.44C152.674 162.214 155.33 177.252 150.155 183.976C145.514 164.484 131.212 155.22 104.118 159.546C92.2159 139.013 89.423 88.7035 115.627 83.2114V83.2114ZM164.708 204.679C165.158 205.05 165.583 205.453 165.98 205.887C167.703 207.276 169.869 208.197 172.744 208.354C172.969 208.314 173.192 208.264 173.412 208.203C174.938 206.877 184.17 198.612 184.712 191.603C184.287 190.937 183.603 190.243 182.484 189.744L182.168 189.641C175.497 188.947 173.492 193.204 167.421 193.135C169.141 187.7 158.991 180.455 167.421 177.872C184.136 197.552 218.781 173.137 201.949 147.336C212.311 146.519 215.814 152.979 224.967 153.443C205.712 182.883 184.473 210.21 153.037 226.732C156.275 217.952 153.616 202.917 158.788 196.195C160.777 199.005 162.374 202.236 164.708 204.679V204.679Z" fill="#B69B79"/>
</svg>
